<svg width="63" height="60" viewBox="0 0 63 60" fill="none" xmlns="http://www.w3.org/2000/svg">
<path d="M37.5757 31.1288C34.2112 27.5152 31.0129 23.7769 28.313 19.6232C26.4024 16.6326 24.6994 13.2682 22.6641 11.1913C20.8365 9.28065 19.6734 7.24536 19.0919 5.16853C15.0214 6.33156 12.1969 7.32843 8.54166 11.1498C-16.9202 37.4009 19.9642 77.9405 48.2921 51.274C50.3689 49.3218 49.6213 46.9543 50.8673 44.8359C46.9214 40.2669 41.7293 35.5733 37.5757 31.1288Z" fill="#DE814B"/>
<path d="M48.294 51.2737C22.0429 72.582 -14.5092 38.7297 8.54358 11.1079C8.91741 10.6926 9.33277 10.2357 9.74814 9.8203C15.0233 4.5867 20.8799 2.13605 26.612 1.76222C27.1935 1.72068 27.6504 2.17759 27.6919 2.71756C27.775 6.12355 29.9764 8.40806 33.2163 8.86496C33.7147 8.94803 34.0055 9.40494 33.8808 9.90337C33.5486 10.9833 33.4239 12.1463 33.4239 13.3509C33.5485 19.4568 38.616 24.4827 44.7219 24.5242C45.968 24.5242 47.1725 24.3581 48.3355 23.9842C48.7924 23.8181 49.2909 24.1089 49.374 24.6073C50.1216 28.6779 53.8184 27.9302 55.5629 27.3487C56.0613 27.1826 56.6013 27.4733 56.7259 27.9718C60.1319 40.3912 48.294 51.2737 48.294 51.2737Z" fill="#F6B059"/>
<path d="M30.4736 25.0233C30.4736 28.097 27.9814 30.1738 24.9077 30.1738C21.834 30.1738 19.3418 28.097 19.3418 25.0233C19.3418 21.9496 21.834 19.4574 24.9077 19.4574C27.9814 19.4574 30.4736 21.908 30.4736 25.0233Z" fill="#6D420D"/>
<path d="M47.9592 38.4394C47.9592 40.807 46.0486 42.7177 43.681 42.7177C41.3134 42.7177 39.6935 41.3054 39.6935 38.9378C39.6935 36.5703 41.3134 34.1196 43.681 34.1196C46.0486 34.1196 47.9592 36.0718 47.9592 38.4394Z" fill="#6D420D"/>
<path d="M15.9788 33.2058C15.9788 35.0334 14.6496 36.0718 12.822 36.0718C10.9944 36.0718 9.41602 35.0334 9.41602 33.2058C9.41602 31.3782 10.8698 29.9244 12.6974 29.9244C14.525 29.9244 15.9788 31.3782 15.9788 33.2058Z" fill="#6D420D"/>
<path d="M26.0288 44.3366C26.0288 45.1674 25.3643 45.832 24.5335 45.832C23.7028 45.832 23.0382 45.1674 23.0382 44.3366C23.0382 43.5059 23.7028 42.8413 24.5335 42.8413C25.3643 42.8413 26.0288 43.5059 26.0288 44.3366Z" fill="#6D420D"/>
<path d="M15.8939 15.6362C16.8115 15.6362 17.5553 14.8924 17.5553 13.9748C17.5553 13.0572 16.8115 12.3133 15.8939 12.3133C14.9763 12.3133 14.2324 13.0572 14.2324 13.9748C14.2324 14.8924 14.9763 15.6362 15.8939 15.6362Z" fill="#6D420D"/>
<path d="M45.9263 4.0055C46.0924 5.99925 44.3479 7.61917 42.0218 7.61917C39.6958 7.61917 37.9097 5.8331 38.0343 3.63167C38.159 1.43024 39.9035 -0.189686 41.9388 0.0179967C43.9741 0.225679 45.7601 1.97021 45.9263 4.0055Z" fill="#F6B059"/>
<path d="M42.9355 6.83002C43.8493 6.83002 44.68 6.58081 45.3446 6.12391C44.6385 7.03771 43.4755 7.61922 42.0632 7.61922C39.7372 7.61922 37.9511 5.83315 38.0757 3.67325C38.1588 2.34408 38.8234 1.2226 39.7787 0.59955C39.3218 1.2226 38.9895 2.01179 38.948 2.88406C38.8649 5.00242 40.651 6.78849 42.9355 6.83002Z" fill="#DE814B"/>
<path d="M45.7182 15.3028C45.6351 16.632 44.5137 17.7535 43.226 17.8781C41.9384 17.9612 40.9 16.8812 40.9415 15.469C40.9415 14.0567 42.063 12.8937 43.4337 12.8937C44.8044 12.8937 45.8013 13.9737 45.7182 15.3028Z" fill="#F6B059"/>
<path d="M43.7238 17.2963C44.2222 17.2548 44.7206 17.0471 45.136 16.7564C44.6791 17.3794 43.973 17.7948 43.1838 17.8778C41.8962 17.9609 40.8993 16.881 40.8993 15.4687C40.8993 14.638 41.3147 13.8488 41.9377 13.3919C41.6469 13.8073 41.4393 14.3472 41.4393 14.8872C41.3977 16.2995 42.4361 17.3794 43.7238 17.2963Z" fill="#DE814B"/>
<path d="M62.7027 16.3422C62.5781 17.9206 61.2904 19.2498 59.7536 19.3329C58.2583 19.4159 57.0537 18.1698 57.0537 16.5084C57.0952 14.8469 58.3829 13.5178 60.0028 13.5178C61.6227 13.5178 62.8273 14.8054 62.7027 16.3422Z" fill="#F6B059"/>
<path d="M60.3766 18.7103C60.9997 18.6687 61.5812 18.4195 62.0381 18.0457C61.4981 18.7933 60.6674 19.2918 59.7536 19.3333C58.2583 19.4164 57.0537 18.1703 57.0537 16.5088C57.0537 15.5119 57.5521 14.6397 58.2583 14.0582C57.8844 14.5566 57.6768 15.1797 57.6768 15.8442C57.6768 17.5472 58.8813 18.7933 60.3766 18.7103Z" fill="#DE814B"/>
</svg>
