<svg width="15" height="15" viewBox="0 0 15 15" fill="none" xmlns="http://www.w3.org/2000/svg">
<path d="M13.2346 0H1.05484C0.775079 0 0.506776 0.111135 0.308956 0.308956C0.111135 0.506776 0 0.775079 0 1.05484V13.2346C0 13.5144 0.111135 13.7827 0.308956 13.9805C0.506776 14.1783 0.775079 14.2895 1.05484 14.2895H13.2346C13.5144 14.2895 13.7827 14.1783 13.9805 13.9805C14.1783 13.7827 14.2895 13.5144 14.2895 13.2346V1.05484C14.2895 0.775079 14.1783 0.506776 13.9805 0.308956C13.7827 0.111135 13.5144 0 13.2346 0ZM4.25905 12.1728H2.11067V5.34862H4.25905V12.1728ZM3.18337 4.40294C2.93968 4.40157 2.70185 4.32804 2.4999 4.19163C2.29796 4.05522 2.14094 3.86204 2.04868 3.63648C1.95641 3.41092 1.93303 3.16309 1.98149 2.92425C2.02995 2.68542 2.14806 2.46629 2.32094 2.29452C2.49381 2.12275 2.7137 2.00604 2.95284 1.95912C3.19198 1.9122 3.43966 1.93717 3.66462 2.03088C3.88959 2.12459 4.08175 2.28284 4.21686 2.48566C4.35197 2.68848 4.42397 2.92677 4.42378 3.17047C4.42608 3.33363 4.3955 3.49558 4.33388 3.64667C4.27226 3.79776 4.18085 3.9349 4.0651 4.04991C3.94934 4.16492 3.81162 4.25545 3.66014 4.3161C3.50866 4.37675 3.34651 4.40629 3.18337 4.40294ZM12.1778 12.1788H10.0304V8.45063C10.0304 7.35113 9.56302 7.01176 8.95969 7.01176C8.32262 7.01176 7.69745 7.49204 7.69745 8.47841V12.1788H5.54907V5.35359H7.61509V6.29927H7.64288C7.85027 5.87952 8.57665 5.16207 9.68508 5.16207C10.8838 5.16207 12.1788 5.87356 12.1788 7.95744L12.1778 12.1788Z" fill="white"/>
</svg>
