<svg width="17" height="17" viewBox="0 0 17 17" fill="none" xmlns="http://www.w3.org/2000/svg">
<path fill-rule="evenodd" clip-rule="evenodd" d="M0 7.77379C0 3.30787 3.50021 0 8.01422 0C12.5282 0 16.0284 3.30987 16.0284 7.77579C16.0284 12.2417 12.5282 15.5496 8.01422 15.5496C7.20278 15.5496 6.4254 15.4414 5.6941 15.241C5.55185 15.203 5.39958 15.213 5.26534 15.2731L3.67452 15.9743C3.25778 16.1587 2.78895 15.8621 2.77492 15.4073L2.73084 13.9808C2.72684 13.8045 2.64669 13.6402 2.51646 13.524C0.957699 12.1295 0 10.1099 0 7.77379ZM5.5559 6.31329L3.20173 10.0479C2.97533 10.4066 3.41611 10.8093 3.75271 10.5528L6.28119 8.63341C6.45149 8.50318 6.68791 8.50318 6.86021 8.63141L8.73353 10.0359C9.29653 10.4566 10.098 10.3104 10.4726 9.71533L12.8288 5.98271C13.0532 5.62407 12.6124 5.21935 12.2758 5.47581L9.74733 7.39521C9.57703 7.52544 9.34061 7.52544 9.1683 7.39722L7.29499 5.99273C6.73199 5.57198 5.93057 5.71824 5.5559 6.31329Z" fill="white"/>
</svg>
