<svg width="14" height="16" viewBox="0 0 14 16" fill="none" xmlns="http://www.w3.org/2000/svg">
<path d="M9.88776 5.24257C10.9386 5.99617 12.2254 6.43961 13.6153 6.43961V4.32666C12.8395 4.16081 12.1527 3.75393 11.6363 3.18799C10.7523 2.63443 10.1155 1.72121 9.92874 0.652344H7.98017V11.3739C7.97576 12.6238 6.96501 13.6358 5.71856 13.6358C4.98404 13.6358 4.3315 13.2845 3.91824 12.7402C3.18026 12.3664 2.67419 11.599 2.67419 10.7128C2.67419 9.45939 3.68661 8.44317 4.93574 8.44317C5.17507 8.44317 5.40574 8.48057 5.62212 8.54948V6.41342C2.93965 6.46904 0.782288 8.66867 0.782288 11.3739C0.782288 12.7244 1.31952 13.9486 2.19145 14.8431C2.97807 15.3731 3.92499 15.6823 4.94378 15.6823C7.67428 15.6823 9.88781 13.4609 9.88781 10.7206V5.24257H9.88776Z" fill="white"/>
<path d="M13.6158 4.32778V3.75645C12.9162 3.75752 12.2303 3.56089 11.6367 3.18905C12.1622 3.76638 12.8541 4.16445 13.6158 4.32778ZM9.92921 0.653464C9.9114 0.55131 9.89772 0.448482 9.88823 0.345262V0H7.19777V10.7216C7.19347 11.9714 6.18277 12.9834 4.93621 12.9834C4.57024 12.9834 4.22471 12.8963 3.91871 12.7413C4.33197 13.2856 4.98451 13.6369 5.71903 13.6369C6.96536 13.6369 7.97628 12.6249 7.98064 11.375V0.653464H9.92921ZM5.6227 6.41455V5.80633C5.39789 5.77549 5.17124 5.76002 4.94431 5.76013C2.21359 5.76007 0 7.98151 0 10.7216C0 12.4395 0.86998 13.9535 2.19198 14.8441C1.32005 13.9497 0.782814 12.7254 0.782814 11.375C0.782814 8.6698 2.94012 6.47016 5.6227 6.41455Z" fill="white"/>
</svg>
