<svg width="15" height="15" viewBox="0 0 15 15" fill="none" xmlns="http://www.w3.org/2000/svg">
<path d="M0 14.558L1.02893 10.8217C0.392802 9.72496 0.0590942 8.48296 0.0625703 7.21328C0.0625703 3.23473 3.31623 0 7.3103 0C9.24997 0 11.0715 0.750735 12.4376 2.11382C13.8072 3.47691 14.5615 5.28974 14.558 7.21674C14.558 11.1953 11.3044 14.43 7.30682 14.43H7.30334C6.09017 14.43 4.89786 14.1256 3.83764 13.5513L0 14.558ZM4.02188 12.247L4.24087 12.3785C5.16552 12.9251 6.22574 13.2122 7.30682 13.2157H7.3103C10.63 13.2157 13.3344 10.5276 13.3344 7.2202C13.3344 5.6184 12.7087 4.11347 11.572 2.97872C10.4353 1.84397 8.91974 1.22124 7.3103 1.22124C3.99059 1.21778 1.28617 3.9059 1.28617 7.21328C1.28617 8.34458 1.60249 9.44819 2.20734 10.403L2.34986 10.6314L1.74154 12.8421L4.02188 12.247Z" fill="white"/>
<path d="M0 14.558L1.02893 10.8217C0.392802 9.72496 0.0590942 8.48296 0.0625703 7.21328C0.0625703 3.23473 3.31623 0 7.3103 0C9.24997 0 11.0715 0.750735 12.4376 2.11382C13.8072 3.47691 14.5615 5.28974 14.558 7.21674C14.558 11.1953 11.3044 14.43 7.30682 14.43H7.30334C6.09017 14.43 4.89786 14.1256 3.83764 13.5513L0 14.558ZM4.02188 12.247L4.24087 12.3785C5.16552 12.9251 6.22574 13.2122 7.30682 13.2157H7.3103C10.63 13.2157 13.3344 10.5276 13.3344 7.2202C13.3344 5.6184 12.7087 4.11347 11.572 2.97872C10.4353 1.84397 8.91974 1.22124 7.3103 1.22124C3.99059 1.21778 1.28617 3.9059 1.28617 7.21328C1.28617 8.34458 1.60249 9.44819 2.20734 10.403L2.34986 10.6314L1.74154 12.8421L4.02188 12.247Z" fill="url(#paint0_linear_721_12457)"/>
<path fill-rule="evenodd" clip-rule="evenodd" d="M5.49906 4.19666C5.36349 3.89567 5.22097 3.88876 5.09236 3.8853C4.98807 3.88184 4.86641 3.88184 4.74474 3.88184C4.62308 3.88184 4.42842 3.92681 4.26156 4.10671C4.09471 4.28661 3.62891 4.72252 3.62891 5.61164C3.62891 6.4973 4.27894 7.35528 4.36932 7.47637C4.4597 7.59746 5.6242 9.47602 7.46307 10.1991C8.99257 10.8011 9.30542 10.68 9.63565 10.6488C9.96589 10.6177 10.7063 10.2129 10.8593 9.79085C11.0087 9.36878 11.0087 9.00898 10.9635 8.93287C10.9183 8.85675 10.7967 8.81178 10.6159 8.72183C10.4352 8.63188 9.54527 8.19597 9.37842 8.1337C9.21157 8.07488 9.0899 8.04375 8.97171 8.22365C8.85005 8.40354 8.50244 8.80832 8.39815 8.92941C8.29387 9.05049 8.18611 9.06433 8.00535 8.97438C7.82459 8.88443 7.2406 8.69415 6.54885 8.07834C6.01005 7.60092 5.64506 7.00932 5.54078 6.82942C5.43649 6.64952 5.53035 6.55265 5.62073 6.4627C5.70068 6.38313 5.80149 6.25167 5.89187 6.14788C5.98224 6.04409 6.01353 5.96798 6.07262 5.84689C6.13172 5.72581 6.10391 5.62202 6.05872 5.53207C6.01353 5.44558 5.65896 4.553 5.49906 4.19666Z" fill="white"/>
<defs>
<linearGradient id="paint0_linear_721_12457" x1="7.28043" y1="14.5567" x2="7.28043" y2="0" gradientUnits="userSpaceOnUse">
<stop stop-color="#F9F9F9"/>
<stop offset="1" stop-color="white"/>
</linearGradient>
</defs>
</svg>
