<svg width="21" height="15" viewBox="0 0 21 15" fill="none" xmlns="http://www.w3.org/2000/svg">
<path fill-rule="evenodd" clip-rule="evenodd" d="M18.5416 0.445548C19.4327 0.685458 20.1353 1.38805 20.3752 2.27915C20.8208 3.90711 20.8037 7.30013 20.8037 7.30013C20.8037 7.30013 20.8037 10.676 20.3752 12.304C20.1353 13.1951 19.4327 13.8977 18.5416 14.1376C16.9137 14.566 10.4018 14.566 10.4018 14.566C10.4018 14.566 3.90711 14.566 2.26201 14.1204C1.37092 13.8805 0.668322 13.1779 0.428411 12.2868C0 10.676 0 7.28299 0 7.28299C0 7.28299 0 3.90711 0.428411 2.27915C0.668322 1.38805 1.38805 0.668322 2.26201 0.428411C3.88997 0 10.4018 0 10.4018 0C10.4018 0 16.9137 0 18.5416 0.445548ZM13.7441 7.28268L8.32898 10.4015V4.16385L13.7441 7.28268Z" fill="white"/>
</svg>
